<svg width="18" height="14" xmlns="http://www.w3.org/2000/svg"><path d="M18 1.657a7.651 7.651 0 0 1-2.121.557A3.577 3.577 0 0 0 17.503.258a7.61 7.61 0 0 1-2.345.858A3.767 3.767 0 0 0 12.462 0C10.422 0 8.77 1.582 8.77 3.534c0 .277.033.547.096.806-3.07-.148-5.79-1.555-7.612-3.693-.318.522-.5 1.129-.5 1.777 0 1.226.652 2.308 1.643 2.941a3.8 3.8 0 0 1-1.673-.442v.045c0 1.712 1.273 3.14 2.963 3.465a3.856 3.856 0 0 1-1.668.061c.47 1.404 1.833 2.426 3.45 2.455A7.623 7.623 0 0 1 .88 12.46c-.298 0-.592-.016-.881-.049A10.798 10.798 0 0 0 5.661 14c6.793 0 10.507-5.386 10.507-10.056 0-.153-.003-.306-.01-.458A7.32 7.32 0 0 0 18 1.657" fill="#FFF" fill-rule="evenodd"/></svg>